#!OML:ASF F:\VICON\USERDATA\INSTALL\rory3\rory3.ASF
:FULLY-SPECIFIED
:DEGREES
278
root -0.0065599 17.5332 -0.293693 1.85565 -83.9167 -0.61086
lowerback 8.115 0.0233618 -0.933801
upperback -1.41562 -0.0296517 0.610431
thorax -6.03554 0.0290268 1.16667
lowerneck -20.4367 -5.1191 -13.4213
upperneck -19.4943 -4.70074 10.9899
head -2.15922 -2.17005 5.5335
rclavicle -1.2306e-014 0
rhumerus 32.8108 -40.1717 -24.8167
rradius 95.67
rwrist 0.489614
rhand -34.1316 3.49672
rfingers 7.12502
rthumb -7.30655 -26.3571
lclavicle -1.2306e-014 0
lhumerus 3.87685 -6.48407 31.1208
lradius 118.666
lwrist -15.2517
lhand -26.2795 18.6084
lfingers 7.12502
lthumb 0.275833 48.588
rfemur -11.9378 -1.81953 23.086
rtibia 37.0503
rfoot -19.9988 4.03289
rtoes 12.6874
lfemur -23.775 11.5875 -14.9441
ltibia 55.9548
lfoot -14.8598 -5.76028
ltoes -26.1524
279
root 0.0144075 17.5471 -0.277927 2.03096 -84.0653 -0.7501
lowerback 8.02835 0.0670556 -1.13444
upperback -1.32096 0.00848867 0.602873
thorax -5.88783 0.0530293 1.26616
lowerneck -20.3389 -5.10311 -13.4006
upperneck -19.8796 -4.70966 11.0091
head -2.28976 -2.18486 5.55044
rclavicle 1.82571e-014 1.09332e-015
rhumerus 31.986 -39.8092 -24.3878
rradius 95.3765
rwrist 0.102445
rhand -34.0478 3.87283
rfingers 7.12502
rthumb -7.22575 -25.9838
lclavicle 1.82571e-014 1.09332e-015
lhumerus 2.23717 -7.30456 32.916
lradius 118.856
lwrist -13.1092
lhand -26.257 19.0739
lfingers 7.12502
lthumb 0.297535 49.0534
rfemur -11.9512 -1.73589 23.0197
rtibia 36.8651
rfoot -19.9183 3.94331
rtoes 11.912
lfemur -23.7529 11.0463 -14.4042
ltibia 55.9272
lfoot -14.9174 -4.09213
ltoes -24.8969
280
root 0.0346164 17.5574 -0.264975 -0.00054014 -84.1348 1.232
lowerback 8.00926 -0.0115781 -1.61136
upperback -1.19573 -0.155047 0.405438
thorax -5.74003 -0.0171658 1.34918
lowerneck -20.3476 -4.95938 -13.0033
upperneck -20.1604 -4.59138 11.2058
head -2.38201 -2.16373 5.56469
rclavicle -9.51837e-015 -4.84538e-015
rhumerus 31.4078 -39.3933 -24.5223
rradius 94.9895
rwrist -0.0903136
rhand -34.0245 4.14895
rfingers 7.12502
rthumb -7.20321 -25.7085
lclavicle -9.51837e-015 -4.84538e-015
lhumerus 0.630337 -7.81602 34.1181
lradius 118.796
lwrist -11.1527
lhand -26.0961 18.8264
lfingers 7.12502
lthumb 0.452934 48.8056
rfemur -11.8072 -1.77489 22.7356
rtibia 36.5575
rfoot -19.8749 3.87949
rtoes 12.1691
lfemur -23.5598 10.4136 -14.1002
ltibia 55.8056
lfoot -14.7767 -2.70717
ltoes -23.1218
281
root 0.0560318 17.562 -0.252675 -1.73134 -84.0587 2.78943
lowerback 8.13309 -0.0812417 -2.06194
upperback -1.03671 -0.297962 0.356518
thorax -5.63689 -0.0765881 1.57022
lowerneck -20.65 -5.00161 -13.1441
upperneck -20.1022 -4.57457 11.4727
head -2.31072 -2.14798 5.67005
rclavicle 8.22705e-015 -4.19933e-015
rhumerus 30.9421 -39.0092 -24.3182
rradius 94.6038
rwrist -0.164479
rhand -33.9065 3.79958
rfingers 7.12502
rthumb -7.08933 -26.0617
lclavicle 8.22705e-015 -4.19933e-015
lhumerus -0.771381 -8.2069 35.4349
lradius 118.542
lwrist -9.45692
lhand -25.8112 18.6748
lfingers 7.12502
lthumb 0.728091 48.6533
rfemur -11.5032 -1.84765 22.4885
rtibia 36.2145
rfoot -19.7731 3.99415
rtoes 13.7002
lfemur -23.1982 9.58218 -13.7676
ltibia 55.5933
lfoot -14.4417 -1.61234
ltoes -22.3886
282
root 0.0721676 17.5724 -0.236837 -1.66586 -83.9668 2.58439
lowerback 8.15783 -0.0872467 -2.28688
upperback -0.897348 -0.322855 0.459732
thorax -5.50218 -0.0834655 1.80733
lowerneck -20.7911 -5.14797 -13.6105
upperneck -20.122 -4.65869 11.6124
head -2.27675 -2.15984 5.78745
rclavicle -9.38792e-015 1.78906e-015
rhumerus 30.49 -38.6552 -23.6546
rradius 94.0828
rwrist -0.235184
rhand -33.7253 3.4042
rfingers 7.12502
rthumb -6.91443 -26.4629
lclavicle -9.38792e-015 1.78906e-015
lhumerus -1.95975 -8.60934 37.0063
lradius 118.224
lwrist -8.22499
lhand -25.67 18.99
lfingers 7.12502
lthumb 0.864444 48.968
rfemur -11.2145 -1.74695 22.4389
rtibia 35.8721
rfoot -19.7373 4.02475
rtoes 14.5869
lfemur -22.8691 8.76917 -13.2645
ltibia 55.3147
lfoot -13.9535 -0.965522
ltoes -20.7894
283
root 0.0854606 17.5875 -0.213031 -1.40692 -83.909 2.38693
lowerback 7.96708 -0.276004 -2.41276
upperback -0.834838 -0.592254 0.264828
thorax -5.31636 -0.218938 1.7065
lowerneck -21.0407 -4.95722 -12.9743
upperneck -20.0595 -4.51068 11.643
head -2.24778 -2.12955 5.69467
rclavicle -4.0316e-015 -5.26779e-015
rhumerus 30.3513 -38.1538 -24.0392
rradius 93.4913
rwrist -0.0772257
rhand -33.5829 3.40069
rfingers 7.12502
rthumb -6.77693 -26.4708
lclavicle -4.0316e-015 -5.26779e-015
lhumerus -3.17186 -8.83058 37.778
lradius 117.809
lwrist -7.85008
lhand -25.5451 19.2662
lfingers 7.12502
lthumb 0.985105 49.2436
rfemur -11.146 -1.62056 22.3755
rtibia 35.5838
rfoot -19.7781 3.87633
rtoes 13.5149
lfemur -22.7069 7.93166 -12.7995
ltibia 54.9542
lfoot -13.2682 -0.766727
ltoes -17.517
284
root 0.0981725 17.6029 -0.19012 -2.39441 -83.8191 3.32465
lowerback 7.94002 -0.382248 -2.59638
upperback -0.774579 -0.761442 0.0665798
thorax -5.2305 -0.302273 1.62327
lowerneck -21.0776 -4.81711 -12.5781
upperneck -20.1511 -4.41212 11.5846
head -2.29041 -2.10982 5.61809
rclavicle -9.39258e-015 3.8763e-015
rhumerus 30.0191 -37.7685 -24.0628
rradius 92.8689
rwrist 0.126013
rhand -33.4937 3.76159
rfingers 7.12502
rthumb -6.6908 -26.1127
lclavicle -9.39258e-015 3.8763e-015
lhumerus -3.93407 -9.05996 38.5672
lradius 117.272
lwrist -7.86396
lhand -25.4466 19.5759
lfingers 7.12502
lthumb 1.08022 49.5529
rfemur -10.9515 -1.5024 22.1651
rtibia 35.3104
rfoot -19.8675 3.63995
rtoes 12.0609
lfemur -22.3766 6.97051 -12.4371
ltibia 54.5559
lfoot -12.1722 -0.886442
ltoes -14.9126
285
root 0.11033 17.6171 -0.167478 -4.6523 -83.7978 5.53904
lowerback 7.97257 -0.234242 -2.91769
upperback -0.78073 -0.600316 0.0040117
thorax -5.26098 -0.214107 1.71955
lowerneck -20.9847 -4.79082 -12.5938
upperneck -20.2456 -4.43147 11.024
head -2.36167 -2.10972 5.44227
rclavicle 7.03822e-015 -1.09332e-015
rhumerus 29.2829 -37.5429 -23.0852
rradius 92.2734
rwrist 0.184971
rhand -33.3334 3.89442
rfingers 7.12502
rthumb -6.53608 -25.9847
lclavicle 7.03822e-015 -1.09332e-015
lhumerus -4.33931 -9.53935 39.9455
lradius 116.584
lwrist -8.43179
lhand -25.6878 19.7141
lfingers 7.12502
lthumb 0.847273 49.6922
rfemur -10.7994 -1.47428 21.786
rtibia 35.0962
rfoot -19.8343 3.60265
rtoes 10.9238
lfemur -21.9811 6.0412 -12.2886
ltibia 54.1221
lfoot -10.8177 -1.05227
ltoes -15.5216
286
root 0.120013 17.6307 -0.132953 -3.11967 -83.9086 4.20696
lowerback 7.72055 -0.183801 -2.67412
upperback -0.907865 -0.510675 -0.143008
thorax -5.25895 -0.177674 1.41679
lowerneck -20.5445 -5.17517 -12.9693
upperneck -20.4492 -4.83225 11.8169
head -2.38445 -2.30224 5.74898
rclavicle 2.19471e-014 9.54166e-015
rhumerus 28.6002 -37.1998 -22.6003
rradius 91.6951
rwrist 0.258383
rhand -33.208 3.9964
rfingers 7.12502
rthumb -6.41505 -25.8864
lclavicle 2.19471e-014 9.54166e-015
lhumerus -4.73031 -9.83556 40.8635
lradius 115.779
lwrist -9.48233
lhand -25.8082 18.9709
lfingers 7.12502
lthumb 0.730972 48.9494
rfemur -10.9718 -1.40335 21.7925
rtibia 34.9714
rfoot -19.8071 3.74768
rtoes 10.629
lfemur -21.8614 5.21366 -11.7816
ltibia 53.7035
lfoot -9.32049 -1.48476
ltoes -17.0133
287
root 0.131366 17.6409 -0.0944868 -0.717464 -84.0187 2.02091
lowerback 7.41284 -0.198517 -2.3149
upperback -1.00199 -0.499757 -0.353144
thorax -5.18782 -0.186104 0.992972
lowerneck -20.2162 -5.19959 -12.6305
upperneck -20.7426 -4.94379 12.0142
head -2.49685 -2.39453 5.76368
rclavicle 5.93869e-015 -5.96354e-016
rhumerus 28.141 -36.9476 -22.458
rradius 91.0472
rwrist 0.2708
rhand -32.893 4.30591
rfingers 7.12502
rthumb -6.11096 -25.586
lclavicle 5.93869e-015 -5.96354e-016
lhumerus -5.00447 -9.92871 41.4231
lradius 115.002
lwrist -10.5241
lhand -26.0256 18.1234
lfingers 7.12502
lthumb 0.52101 48.1025
rfemur -11.2243 -1.34507 21.8923
rtibia 34.9695
rfoot -20.0225 3.75466
rtoes 9.56185
lfemur -21.7609 4.2804 -11.1859
ltibia 53.2636
lfoot -7.80135 -2.19555
ltoes -18.208
288
root 0.149697 17.6402 -0.0600361 -2.30455 -83.9812 3.50983
lowerback 7.4127 -0.165666 -2.43655
upperback -0.9183 -0.479268 -0.582442
thorax -5.10214 -0.178349 0.820408
lowerneck -20.3038 -5.24503 -12.4076
upperneck -20.7057 -5.03035 12.0598
head -2.46468 -2.45099 5.73223
rclavicle 3.85145e-016 3.57812e-015
rhumerus 27.8109 -36.8783 -22.1654
rradius 90.4171
rwrist 0.12589
rhand -32.6528 3.93124
rfingers 7.12502
rthumb -5.87906 -25.9672
lclavicle 3.85145e-016 3.57812e-015
lhumerus -4.93524 -9.85305 42.1394
lradius 114.118
lwrist -11.8926
lhand -26.028 17.2293
lfingers 7.12502
lthumb 0.518733 47.2084
rfemur -11.1895 -1.37914 21.5728
rtibia 35.1053
rfoot -20.4128 3.70695
rtoes 7.84255
lfemur -21.3136 3.23896 -11.0234
ltibia 52.8112
lfoot -6.2957 -3.07396
ltoes -18.9073
289
root 0.167943 17.6355 -0.0272684 -5.0407 -83.9357 6.17185
lowerback 7.40802 -0.073509 -2.7265
upperback -0.851855 -0.39418 -0.787796
thorax -5.03289 -0.133509 0.759903
lowerneck -20.414 -5.45444 -12.5253
upperneck -20.5488 -5.24221 12.3311
head -2.3589 -2.54553 5.81785
rclavicle 7.91411e-015 1.66979e-014
rhumerus 27.394 -36.8475 -21.6913
rradius 89.8679
rwrist -0.0492661
rhand -32.5255 3.57679
rfingers 7.12502
rthumb -5.75609 -26.325
lclavicle 7.91411e-015 1.66979e-014
lhumerus -4.69151 -9.83649 42.8682
lradius 113.234
lwrist -12.9757
lhand -26.2288 15.7329
lfingers 7.12502
lthumb 0.324746 45.7124
rfemur -11.2479 -1.29153 21.1208
rtibia 35.4094
rfoot -20.8671 3.64737
rtoes 5.9781
lfemur -20.8627 2.25983 -11.0755
ltibia 52.3512
lfoot -5.26171 -4.0286
ltoes -21.0859
